<?xml version="1.0" encoding="UTF-8" standalone="no"?>
<!DOCTYPE svg PUBLIC "-//W3C//DTD SVG 1.1//EN"
 "http://www.w3.org/Graphics/SVG/1.1/DTD/svg11.dtd">
<!-- Generated by graphviz version 2.40.1 (20161225.0304)
 -->
<!-- Title: dependencies Pages: 1 -->
<svg width="7388pt" height="496pt"
 viewBox="0.00 0.00 7388.00 496.00" xmlns="http://www.w3.org/2000/svg" xmlns:xlink="http://www.w3.org/1999/xlink">
<g id="graph0" class="graph" transform="scale(1 1) rotate(0) translate(4 492)">
<title>dependencies</title>
<polygon fill="#ffffff" stroke="transparent" points="-4,4 -4,-492 7384,-492 7384,4 -4,4"/>
<text text-anchor="start" x="3669.0091" y="-42.4" font-family="sans-serif" font-weight="bold" font-size="14.00" fill="#000000">Legend</text>
<polygon fill="#ffffb3" stroke="transparent" points="3456,-10 3456,-30 3476,-30 3476,-10 3456,-10"/>
<text text-anchor="start" x="3479.629" y="-15.4" font-family="sans-serif" font-size="14.00" fill="#000000"> &#160;Declarations</text>
<polygon fill="#8dd3c7" stroke="transparent" points="3569,-10 3569,-30 3589,-30 3589,-10 3569,-10"/>
<text text-anchor="start" x="3592.7251" y="-15.4" font-family="sans-serif" font-size="14.00" fill="#000000"> &#160;Module</text>
<polygon fill="#80b1d3" stroke="transparent" points="3655,-10 3655,-30 3675,-30 3675,-10 3655,-10"/>
<text text-anchor="start" x="3678.7812" y="-15.4" font-family="sans-serif" font-size="14.00" fill="#000000"> &#160;Bootstrap</text>
<polygon fill="#fdb462" stroke="transparent" points="3752,-10 3752,-30 3772,-30 3772,-10 3752,-10"/>
<text text-anchor="start" x="3775.6732" y="-15.4" font-family="sans-serif" font-size="14.00" fill="#000000"> &#160;Providers</text>
<polygon fill="#fb8072" stroke="transparent" points="3848,-10 3848,-30 3868,-30 3868,-10 3848,-10"/>
<text text-anchor="start" x="3871.7258" y="-15.4" font-family="sans-serif" font-size="14.00" fill="#000000"> &#160;Exports</text>
<g id="clust1" class="cluster">
<title>cluster_AngularFontAwesomeModule</title>
<polygon fill="none" stroke="#000000" stroke-dasharray="1,5" points="4696,-70 4696,-274 5352,-274 5352,-70 4696,-70"/>
</g>
<g id="clust2" class="cluster">
<title>cluster_AngularFontAwesomeModule_declarations</title>
<polygon fill="none" stroke="#000000" points="5120,-78 5120,-130 5344,-130 5344,-78 5120,-78"/>
</g>
<g id="clust4" class="cluster">
<title>cluster_AngularFontAwesomeModule_imports</title>
<polygon fill="none" stroke="#000000" points="4704,-78 4704,-130 4832,-130 4832,-78 4704,-78"/>
</g>
<g id="clust5" class="cluster">
<title>cluster_AngularFontAwesomeModule_exports</title>
<polygon fill="none" stroke="#000000" points="4783,-214 4783,-266 5011,-266 5011,-214 4783,-214"/>
</g>
<g id="clust7" class="cluster">
<title>cluster_AngularFontAwesomeModule_providers</title>
<polygon fill="none" stroke="#000000" points="4840,-78 4840,-130 5112,-130 5112,-78 4840,-78"/>
</g>
<g id="clust8" class="cluster">
<title>cluster_AppRoutingModule</title>
<polygon fill="none" stroke="#000000" stroke-dasharray="1,5" points="8,-138 8,-350 218,-350 218,-138 8,-138"/>
</g>
<g id="clust10" class="cluster">
<title>cluster_AppRoutingModule_imports</title>
<polygon fill="none" stroke="#000000" points="16,-146 16,-198 210,-198 210,-146 16,-146"/>
</g>
<g id="clust11" class="cluster">
<title>cluster_AppRoutingModule_exports</title>
<polygon fill="none" stroke="#000000" points="92,-290 92,-342 210,-342 210,-290 92,-290"/>
</g>
<g id="clust14" class="cluster">
<title>cluster_AppModule</title>
<polygon fill="none" stroke="#000000" stroke-dasharray="1,5" points="3257,-206 3257,-480 4688,-480 4688,-206 3257,-206"/>
</g>
<g id="clust15" class="cluster">
<title>cluster_AppModule_declarations</title>
<polygon fill="none" stroke="#000000" points="4558,-290 4558,-342 4680,-342 4680,-290 4558,-290"/>
</g>
<g id="clust17" class="cluster">
<title>cluster_AppModule_imports</title>
<polygon fill="none" stroke="#000000" points="4101,-214 4101,-342 4550,-342 4550,-214 4101,-214"/>
</g>
<g id="clust19" class="cluster">
<title>cluster_AppModule_bootstrap</title>
<polygon fill="none" stroke="#000000" points="4217,-420 4217,-472 4341,-472 4341,-420 4217,-420"/>
</g>
<g id="clust20" class="cluster">
<title>cluster_AppModule_providers</title>
<polygon fill="none" stroke="#000000" points="3265,-290 3265,-342 4093,-342 4093,-290 3265,-290"/>
</g>
<g id="clust21" class="cluster">
<title>cluster_ErrorModule</title>
<polygon fill="none" stroke="#000000" stroke-dasharray="1,5" points="6162,-206 6162,-342 6412,-342 6412,-206 6162,-206"/>
</g>
<g id="clust22" class="cluster">
<title>cluster_ErrorModule_declarations</title>
<polygon fill="none" stroke="#000000" points="6170,-214 6170,-266 6324,-266 6324,-214 6170,-214"/>
</g>
<g id="clust24" class="cluster">
<title>cluster_ErrorModule_imports</title>
<polygon fill="none" stroke="#000000" points="6332,-214 6332,-266 6404,-266 6404,-214 6332,-214"/>
</g>
<g id="clust28" class="cluster">
<title>cluster_LandingPageModule</title>
<polygon fill="none" stroke="#000000" stroke-dasharray="1,5" points="5360,-206 5360,-274 6154,-274 6154,-206 5360,-206"/>
</g>
<g id="clust29" class="cluster">
<title>cluster_LandingPageModule_declarations</title>
<polygon fill="none" stroke="#000000" points="5368,-214 5368,-266 6146,-266 6146,-214 5368,-214"/>
</g>
<g id="clust38" class="cluster">
<title>cluster_LegalAndFurtherModule</title>
<polygon fill="none" stroke="#000000" stroke-dasharray="1,5" points="6420,-206 6420,-342 7068,-342 7068,-206 6420,-206"/>
</g>
<g id="clust39" class="cluster">
<title>cluster_LegalAndFurtherModule_declarations</title>
<polygon fill="none" stroke="#000000" points="6428,-214 6428,-266 7060,-266 7060,-214 6428,-214"/>
</g>
<g id="clust48" class="cluster">
<title>cluster_PredictionResultModule</title>
<polygon fill="none" stroke="#000000" stroke-dasharray="1,5" points="7076,-206 7076,-342 7372,-342 7372,-206 7076,-206"/>
</g>
<g id="clust49" class="cluster">
<title>cluster_PredictionResultModule_declarations</title>
<polygon fill="none" stroke="#000000" points="7204,-214 7204,-266 7364,-266 7364,-214 7204,-214"/>
</g>
<g id="clust51" class="cluster">
<title>cluster_PredictionResultModule_imports</title>
<polygon fill="none" stroke="#000000" points="7084,-214 7084,-266 7196,-266 7196,-214 7084,-214"/>
</g>
<g id="clust55" class="cluster">
<title>cluster_SharedModule</title>
<polygon fill="none" stroke="#000000" stroke-dasharray="1,5" points="226,-282 226,-350 3249,-350 3249,-282 226,-282"/>
</g>
<g id="clust56" class="cluster">
<title>cluster_SharedModule_declarations</title>
<polygon fill="none" stroke="#000000" points="2526,-290 2526,-342 3241,-342 3241,-290 2526,-290"/>
</g>
<g id="clust62" class="cluster">
<title>cluster_SharedModule_imports</title>
<polygon fill="none" stroke="#000000" points="1836,-290 1836,-342 2518,-342 2518,-290 1836,-290"/>
</g>
<g id="clust63" class="cluster">
<title>cluster_SharedModule_exports</title>
<polygon fill="none" stroke="#000000" points="234,-290 234,-342 1828,-342 1828,-290 234,-290"/>
</g>
<!-- AngularFontAwesomeComponent -->
<g id="node1" class="node">
<title>AngularFontAwesomeComponent</title>
<polygon fill="#ffffb3" stroke="#000000" points="5336.3556,-122 5127.6444,-122 5127.6444,-86 5336.3556,-86 5336.3556,-122"/>
<text text-anchor="middle" x="5232" y="-99.8" font-family="Times,serif" font-size="14.00" fill="#000000">AngularFontAwesomeComponent</text>
</g>
<!-- AngularFontAwesomeModule -->
<g id="node2" class="node">
<title>AngularFontAwesomeModule</title>
<polygon fill="#8dd3c7" stroke="#000000" points="4990.573,-190 4987.573,-194 4966.573,-194 4963.573,-190 4803.427,-190 4803.427,-154 4990.573,-154 4990.573,-190"/>
<text text-anchor="middle" x="4897" y="-167.8" font-family="Times,serif" font-size="14.00" fill="#000000">AngularFontAwesomeModule</text>
</g>
<!-- AngularFontAwesomeComponent&#45;&gt;AngularFontAwesomeModule -->
<g id="edge1" class="edge">
<title>AngularFontAwesomeComponent&#45;&gt;AngularFontAwesomeModule</title>
<path fill="none" stroke="#000000" d="M5232,-122.2228C5232,-142.3652 5232,-172 5232,-172 5232,-172 5000.7616,-172 5000.7616,-172"/>
<polygon fill="#000000" stroke="#000000" points="5000.7617,-168.5001 4990.7616,-172 5000.7616,-175.5001 5000.7617,-168.5001"/>
</g>
<!-- AngularFontAwesomeComponent  -->
<g id="node4" class="node">
<title>AngularFontAwesomeComponent </title>
<polygon fill="#fb8072" stroke="#000000" points="5003.3559,-258 4790.6441,-258 4790.6441,-222 5003.3559,-222 5003.3559,-258"/>
<text text-anchor="middle" x="4897" y="-235.8" font-family="Times,serif" font-size="14.00" fill="#000000">AngularFontAwesomeComponent </text>
</g>
<!-- AngularFontAwesomeModule&#45;&gt;AngularFontAwesomeComponent  -->
<g id="edge3" class="edge">
<title>AngularFontAwesomeModule&#45;&gt;AngularFontAwesomeComponent </title>
<path fill="none" stroke="#000000" stroke-dasharray="5,2" d="M4897,-190.2228C4897,-190.2228 4897,-211.7269 4897,-211.7269"/>
<polygon fill="#000000" stroke="#000000" points="4893.5001,-211.7269 4897,-221.7269 4900.5001,-211.727 4893.5001,-211.7269"/>
</g>
<!-- SharedModule -->
<g id="node14" class="node">
<title>SharedModule</title>
<polygon fill="#8dd3c7" stroke="#000000" points="4207.4231,-258 4204.4231,-262 4183.4231,-262 4180.4231,-258 4108.5769,-258 4108.5769,-222 4207.4231,-222 4207.4231,-258"/>
<text text-anchor="middle" x="4158" y="-235.8" font-family="Times,serif" font-size="14.00" fill="#000000">SharedModule</text>
</g>
<!-- AngularFontAwesomeModule&#45;&gt;SharedModule -->
<g id="edge44" class="edge">
<title>AngularFontAwesomeModule&#45;&gt;SharedModule</title>
<path fill="none" stroke="#000000" d="M4803.2739,-172C4607.7571,-172 4174.4037,-172 4174.4037,-172 4174.4037,-172 4174.4037,-211.7772 4174.4037,-211.7772"/>
<polygon fill="#000000" stroke="#000000" points="4170.9038,-211.7772 4174.4037,-221.7772 4177.9038,-211.7773 4170.9038,-211.7772"/>
</g>
<!-- CommonModule -->
<g id="node3" class="node">
<title>CommonModule</title>
<polygon fill="#8dd3c7" stroke="#000000" points="4823.6681,-122 4820.6681,-126 4799.6681,-126 4796.6681,-122 4712.3319,-122 4712.3319,-86 4823.6681,-86 4823.6681,-122"/>
<text text-anchor="middle" x="4768" y="-99.8" font-family="Times,serif" font-size="14.00" fill="#000000">CommonModule</text>
</g>
<!-- CommonModule&#45;&gt;AngularFontAwesomeModule -->
<g id="edge2" class="edge">
<title>CommonModule&#45;&gt;AngularFontAwesomeModule</title>
<path fill="none" stroke="#000000" d="M4813.6487,-122.2228C4813.6487,-122.2228 4813.6487,-143.7269 4813.6487,-143.7269"/>
<polygon fill="#000000" stroke="#000000" points="4810.1487,-143.7269 4813.6487,-153.7269 4817.1487,-143.727 4810.1487,-143.7269"/>
</g>
<!-- CommonModule&#45;&gt;SharedModule -->
<g id="edge38" class="edge">
<title>CommonModule&#45;&gt;SharedModule</title>
<path fill="none" stroke="#000000" d="M4712.1355,-104C4558.6071,-104 4141.5963,-104 4141.5963,-104 4141.5963,-104 4141.5963,-211.9403 4141.5963,-211.9403"/>
<polygon fill="#000000" stroke="#000000" points="4138.0964,-211.9402 4141.5963,-221.9403 4145.0964,-211.9403 4138.0964,-211.9402"/>
</g>
<!-- AngularFontAwesomeService -->
<g id="node5" class="node">
<title>AngularFontAwesomeService</title>
<ellipse fill="#fdb462" stroke="#000000" cx="4976" cy="-104" rx="127.9102" ry="18"/>
<text text-anchor="middle" x="4976" y="-99.8" font-family="Times,serif" font-size="14.00" fill="#000000">AngularFontAwesomeService</text>
</g>
<!-- AngularFontAwesomeService&#45;&gt;AngularFontAwesomeModule -->
<g id="edge4" class="edge">
<title>AngularFontAwesomeService&#45;&gt;AngularFontAwesomeModule</title>
<path fill="none" stroke="#000000" d="M4919.2907,-120.4609C4919.2907,-120.4609 4919.2907,-143.7772 4919.2907,-143.7772"/>
<polygon fill="#000000" stroke="#000000" points="4915.7908,-143.7772 4919.2907,-153.7772 4922.7908,-143.7773 4915.7908,-143.7772"/>
</g>
<!-- RouterModule.forRoot(args) -->
<g id="node6" class="node">
<title>RouterModule.forRoot(args)</title>
<polygon fill="#8dd3c7" stroke="#000000" points="201.8419,-190 198.8419,-194 177.8419,-194 174.8419,-190 24.1581,-190 24.1581,-154 201.8419,-154 201.8419,-190"/>
<text text-anchor="middle" x="113" y="-167.8" font-family="Times,serif" font-size="14.00" fill="#000000">RouterModule.forRoot(args)</text>
</g>
<!-- AppRoutingModule -->
<g id="node7" class="node">
<title>AppRoutingModule</title>
<polygon fill="#8dd3c7" stroke="#000000" points="177.2744,-258 174.2744,-262 153.2744,-262 150.2744,-258 48.7256,-258 48.7256,-222 177.2744,-222 177.2744,-258"/>
<text text-anchor="middle" x="113" y="-235.8" font-family="Times,serif" font-size="14.00" fill="#000000">AppRoutingModule</text>
</g>
<!-- RouterModule.forRoot(args)&#45;&gt;AppRoutingModule -->
<g id="edge5" class="edge">
<title>RouterModule.forRoot(args)&#45;&gt;AppRoutingModule</title>
<path fill="none" stroke="#000000" d="M113,-190.2228C113,-190.2228 113,-211.7269 113,-211.7269"/>
<polygon fill="#000000" stroke="#000000" points="109.5001,-211.7269 113,-221.7269 116.5001,-211.727 109.5001,-211.7269"/>
</g>
<!-- RouterModule  -->
<g id="node8" class="node">
<title>RouterModule </title>
<polygon fill="#fb8072" stroke="#000000" points="201.6523,-334 100.3477,-334 100.3477,-298 201.6523,-298 201.6523,-334"/>
<text text-anchor="middle" x="151" y="-311.8" font-family="Times,serif" font-size="14.00" fill="#000000">RouterModule </text>
</g>
<!-- AppRoutingModule&#45;&gt;RouterModule  -->
<g id="edge6" class="edge">
<title>AppRoutingModule&#45;&gt;RouterModule </title>
<path fill="none" stroke="#000000" stroke-dasharray="5,2" d="M138.9055,-258.0109C138.9055,-258.0109 138.9055,-287.855 138.9055,-287.855"/>
<polygon fill="#000000" stroke="#000000" points="135.4056,-287.8549 138.9055,-297.855 142.4056,-287.855 135.4056,-287.8549"/>
</g>
<!-- AppModule -->
<g id="node10" class="node">
<title>AppModule</title>
<polygon fill="#8dd3c7" stroke="#000000" points="4320.6571,-399 4317.6571,-403 4296.6571,-403 4293.6571,-399 4237.3429,-399 4237.3429,-363 4320.6571,-363 4320.6571,-399"/>
<text text-anchor="middle" x="4279" y="-376.8" font-family="Times,serif" font-size="14.00" fill="#000000">AppModule</text>
</g>
<!-- AppRoutingModule&#45;&gt;AppModule -->
<g id="edge9" class="edge">
<title>AppRoutingModule&#45;&gt;AppModule</title>
<path fill="none" stroke="#000000" d="M74.5184,-258.0251C74.5184,-297.2783 74.5184,-387 74.5184,-387 74.5184,-387 4227.0464,-387 4227.0464,-387"/>
<polygon fill="#000000" stroke="#000000" points="4227.0464,-390.5001 4237.0464,-387 4227.0463,-383.5001 4227.0464,-390.5001"/>
</g>
<!-- AppComponent -->
<g id="node9" class="node">
<title>AppComponent</title>
<polygon fill="#ffffb3" stroke="#000000" points="4671.9399,-334 4566.0601,-334 4566.0601,-298 4671.9399,-298 4671.9399,-334"/>
<text text-anchor="middle" x="4619" y="-311.8" font-family="Times,serif" font-size="14.00" fill="#000000">AppComponent</text>
</g>
<!-- AppComponent&#45;&gt;AppModule -->
<g id="edge7" class="edge">
<title>AppComponent&#45;&gt;AppModule</title>
<path fill="none" stroke="#000000" d="M4619,-334.2843C4619,-355.3211 4619,-387 4619,-387 4619,-387 4330.6907,-387 4330.6907,-387"/>
<polygon fill="#000000" stroke="#000000" points="4330.6907,-383.5001 4320.6907,-387 4330.6906,-390.5001 4330.6907,-383.5001"/>
</g>
<!-- AppComponent  -->
<g id="node15" class="node">
<title>AppComponent </title>
<polygon fill="#80b1d3" stroke="#000000" points="4333.439,-464 4224.561,-464 4224.561,-428 4333.439,-428 4333.439,-464"/>
<text text-anchor="middle" x="4279" y="-441.8" font-family="Times,serif" font-size="14.00" fill="#000000">AppComponent </text>
</g>
<!-- AppModule&#45;&gt;AppComponent  -->
<g id="edge13" class="edge">
<title>AppModule&#45;&gt;AppComponent </title>
<path fill="none" stroke="#000000" stroke-dasharray="1,5" d="M4279,-399.1061C4279,-399.1061 4279,-417.991 4279,-417.991"/>
<polygon fill="#000000" stroke="#000000" points="4275.5001,-417.9909 4279,-427.991 4282.5001,-417.991 4275.5001,-417.9909"/>
</g>
<!-- BrowserModule -->
<g id="node11" class="node">
<title>BrowserModule</title>
<polygon fill="#8dd3c7" stroke="#000000" points="4332.4734,-258 4329.4734,-262 4308.4734,-262 4305.4734,-258 4225.5266,-258 4225.5266,-222 4332.4734,-222 4332.4734,-258"/>
<text text-anchor="middle" x="4279" y="-235.8" font-family="Times,serif" font-size="14.00" fill="#000000">BrowserModule</text>
</g>
<!-- BrowserModule&#45;&gt;AppModule -->
<g id="edge8" class="edge">
<title>BrowserModule&#45;&gt;AppModule</title>
<path fill="none" stroke="#000000" d="M4279,-258.1446C4279,-258.1446 4279,-352.925 4279,-352.925"/>
<polygon fill="#000000" stroke="#000000" points="4275.5001,-352.925 4279,-362.925 4282.5001,-352.925 4275.5001,-352.925"/>
</g>
<!-- TranslateModule.forRoot(args) -->
<g id="node12" class="node">
<title>TranslateModule.forRoot(args)</title>
<polygon fill="#8dd3c7" stroke="#000000" points="4541.8223,-258 4538.8223,-262 4517.8223,-262 4514.8223,-258 4350.1777,-258 4350.1777,-222 4541.8223,-222 4541.8223,-258"/>
<text text-anchor="middle" x="4446" y="-235.8" font-family="Times,serif" font-size="14.00" fill="#000000">TranslateModule.forRoot(args)</text>
</g>
<!-- TranslateModule.forRoot(args)&#45;&gt;AppModule -->
<g id="edge10" class="edge">
<title>TranslateModule.forRoot(args)&#45;&gt;AppModule</title>
<path fill="none" stroke="#000000" d="M4379.3147,-258.2067C4379.3147,-295.0559 4379.3147,-375 4379.3147,-375 4379.3147,-375 4330.671,-375 4330.671,-375"/>
<polygon fill="#000000" stroke="#000000" points="4330.671,-371.5001 4320.671,-375 4330.6709,-378.5001 4330.671,-371.5001"/>
</g>
<!-- LandingPageModule -->
<g id="node13" class="node">
<title>LandingPageModule</title>
<polygon fill="#8dd3c7" stroke="#000000" points="4541.9201,-334 4538.9201,-338 4517.9201,-338 4514.9201,-334 4408.0799,-334 4408.0799,-298 4541.9201,-298 4541.9201,-334"/>
<text text-anchor="middle" x="4475" y="-311.8" font-family="Times,serif" font-size="14.00" fill="#000000">LandingPageModule</text>
</g>
<!-- LandingPageModule&#45;&gt;AppModule -->
<g id="edge11" class="edge">
<title>LandingPageModule&#45;&gt;AppModule</title>
<path fill="none" stroke="#000000" d="M4407.808,-325C4358.4328,-325 4299.9141,-325 4299.9141,-325 4299.9141,-325 4299.9141,-352.973 4299.9141,-352.973"/>
<polygon fill="#000000" stroke="#000000" points="4296.4142,-352.973 4299.9141,-362.973 4303.4142,-352.973 4296.4142,-352.973"/>
</g>
<!-- SharedModule&#45;&gt;RouterModule  -->
<g id="edge53" class="edge">
<title>SharedModule&#45;&gt;RouterModule </title>
<path fill="none" stroke="#000000" stroke-dasharray="5,2" d="M4108.5416,-224C3652.0506,-224 189.4816,-224 189.4816,-224 189.4816,-224 189.4816,-287.8238 189.4816,-287.8238"/>
<polygon fill="#000000" stroke="#000000" points="185.9817,-287.8237 189.4816,-297.8238 192.9817,-287.8238 185.9817,-287.8237"/>
</g>
<!-- SharedModule&#45;&gt;AppModule -->
<g id="edge12" class="edge">
<title>SharedModule&#45;&gt;AppModule</title>
<path fill="none" stroke="#000000" d="M4174.4037,-258.2067C4174.4037,-295.0559 4174.4037,-375 4174.4037,-375 4174.4037,-375 4227.0594,-375 4227.0594,-375"/>
<polygon fill="#000000" stroke="#000000" points="4227.0594,-378.5001 4237.0594,-375 4227.0593,-371.5001 4227.0594,-378.5001"/>
</g>
<!-- SharedModule&#45;&gt;LandingPageModule -->
<g id="edge22" class="edge">
<title>SharedModule&#45;&gt;LandingPageModule</title>
<path fill="none" stroke="#000000" d="M4190.8074,-258.308C4190.8074,-278.1455 4190.8074,-307 4190.8074,-307 4190.8074,-307 4398.0102,-307 4398.0102,-307"/>
<polygon fill="#000000" stroke="#000000" points="4398.0102,-310.5001 4408.0102,-307 4398.0102,-303.5001 4398.0102,-310.5001"/>
</g>
<!-- ErrorModule -->
<g id="node18" class="node">
<title>ErrorModule</title>
<polygon fill="#8dd3c7" stroke="#000000" points="6291.5842,-334 6288.5842,-338 6267.5842,-338 6264.5842,-334 6202.4158,-334 6202.4158,-298 6291.5842,-298 6291.5842,-334"/>
<text text-anchor="middle" x="6247" y="-311.8" font-family="Times,serif" font-size="14.00" fill="#000000">ErrorModule</text>
</g>
<!-- SharedModule&#45;&gt;ErrorModule -->
<g id="edge16" class="edge">
<title>SharedModule&#45;&gt;ErrorModule</title>
<path fill="none" stroke="#000000" d="M4125.1926,-258.2819C4125.1926,-273.9478 4125.1926,-294 4125.1926,-294 4125.1926,-294 6232.1526,-294 6232.1526,-294 6232.1526,-294 6232.1526,-294.3832 6232.1526,-294.3832"/>
<polygon fill="#000000" stroke="#000000" points="6228.6529,-287.832 6232.1526,-297.8321 6235.6529,-287.8322 6228.6529,-287.832"/>
</g>
<!-- LegalAndFurtherModule -->
<g id="node28" class="node">
<title>LegalAndFurtherModule</title>
<polygon fill="#8dd3c7" stroke="#000000" points="6699.238,-334 6696.238,-338 6675.238,-338 6672.238,-334 6542.762,-334 6542.762,-298 6699.238,-298 6699.238,-334"/>
<text text-anchor="middle" x="6621" y="-311.8" font-family="Times,serif" font-size="14.00" fill="#000000">LegalAndFurtherModule</text>
</g>
<!-- SharedModule&#45;&gt;LegalAndFurtherModule -->
<g id="edge28" class="edge">
<title>SharedModule&#45;&gt;LegalAndFurtherModule</title>
<path fill="none" stroke="#000000" d="M4141.5963,-258.0511C4141.5963,-272.373 4141.5963,-290 4141.5963,-290 4141.5963,-290 6567.0998,-290 6567.0998,-290 6567.0998,-290 6567.0998,-290.7942 6567.0998,-290.7942"/>
<polygon fill="#000000" stroke="#000000" points="6563.5999,-287.9421 6567.0998,-297.9421 6570.5999,-287.9422 6563.5999,-287.9421"/>
</g>
<!-- PredictionResultModule -->
<g id="node30" class="node">
<title>PredictionResultModule</title>
<polygon fill="#8dd3c7" stroke="#000000" points="7236.3711,-334 7233.3711,-338 7212.3711,-338 7209.3711,-334 7083.6289,-334 7083.6289,-298 7236.3711,-298 7236.3711,-334"/>
<text text-anchor="middle" x="7160" y="-311.8" font-family="Times,serif" font-size="14.00" fill="#000000">PredictionResultModule</text>
</g>
<!-- SharedModule&#45;&gt;PredictionResultModule -->
<g id="edge31" class="edge">
<title>SharedModule&#45;&gt;PredictionResultModule</title>
<path fill="none" stroke="#000000" d="M4158,-258.0439C4158,-270.5633 4158,-285 4158,-285 4158,-285 7086.3602,-285 7086.3602,-285 7086.3602,-285 7086.3602,-287.9672 7086.3602,-287.9672"/>
<polygon fill="#000000" stroke="#000000" points="7082.8603,-287.9671 7086.3602,-297.9672 7089.8603,-287.9672 7082.8603,-287.9671"/>
</g>
<!-- HeaderComponent  -->
<g id="node42" class="node">
<title>HeaderComponent </title>
<polygon fill="#fb8072" stroke="#000000" points="506.7436,-334 381.2564,-334 381.2564,-298 506.7436,-298 506.7436,-334"/>
<text text-anchor="middle" x="444" y="-311.8" font-family="Times,serif" font-size="14.00" fill="#000000">HeaderComponent </text>
</g>
<!-- SharedModule&#45;&gt;HeaderComponent  -->
<g id="edge45" class="edge">
<title>SharedModule&#45;&gt;HeaderComponent </title>
<path fill="none" stroke="#000000" stroke-dasharray="5,2" d="M4108.6521,-227C3669.2718,-227 444,-227 444,-227 444,-227 444,-287.9895 444,-287.9895"/>
<polygon fill="#000000" stroke="#000000" points="440.5001,-287.9895 444,-297.9895 447.5001,-287.9896 440.5001,-287.9895"/>
</g>
<!-- FooterComponent  -->
<g id="node43" class="node">
<title>FooterComponent </title>
<polygon fill="#fb8072" stroke="#000000" points="363.8814,-334 242.1186,-334 242.1186,-298 363.8814,-298 363.8814,-334"/>
<text text-anchor="middle" x="303" y="-311.8" font-family="Times,serif" font-size="14.00" fill="#000000">FooterComponent </text>
</g>
<!-- SharedModule&#45;&gt;FooterComponent  -->
<g id="edge46" class="edge">
<title>SharedModule&#45;&gt;FooterComponent </title>
<path fill="none" stroke="#000000" stroke-dasharray="5,2" d="M4108.556,-226C3659.4938,-226 303,-226 303,-226 303,-226 303,-287.7872 303,-287.7872"/>
<polygon fill="#000000" stroke="#000000" points="299.5001,-287.7871 303,-297.7872 306.5001,-287.7872 299.5001,-287.7871"/>
</g>
<!-- ImageComponent  -->
<g id="node44" class="node">
<title>ImageComponent </title>
<polygon fill="#fb8072" stroke="#000000" points="1819.8129,-334 1700.1871,-334 1700.1871,-298 1819.8129,-298 1819.8129,-334"/>
<text text-anchor="middle" x="1760" y="-311.8" font-family="Times,serif" font-size="14.00" fill="#000000">ImageComponent </text>
</g>
<!-- SharedModule&#45;&gt;ImageComponent  -->
<g id="edge47" class="edge">
<title>SharedModule&#45;&gt;ImageComponent </title>
<path fill="none" stroke="#000000" stroke-dasharray="5,2" d="M4108.739,-241C3766.7657,-241 1760,-241 1760,-241 1760,-241 1760,-287.8446 1760,-287.8446"/>
<polygon fill="#000000" stroke="#000000" points="1756.5001,-287.8446 1760,-297.8446 1763.5001,-287.8446 1756.5001,-287.8446"/>
</g>
<!-- WebcamComponent  -->
<g id="node45" class="node">
<title>WebcamComponent </title>
<polygon fill="#fb8072" stroke="#000000" points="1682.082,-334 1547.918,-334 1547.918,-298 1682.082,-298 1682.082,-334"/>
<text text-anchor="middle" x="1615" y="-311.8" font-family="Times,serif" font-size="14.00" fill="#000000">WebcamComponent </text>
</g>
<!-- SharedModule&#45;&gt;WebcamComponent  -->
<g id="edge48" class="edge">
<title>SharedModule&#45;&gt;WebcamComponent </title>
<path fill="none" stroke="#000000" stroke-dasharray="5,2" d="M4108.626,-240C3754.4831,-240 1615,-240 1615,-240 1615,-240 1615,-287.9891 1615,-287.9891"/>
<polygon fill="#000000" stroke="#000000" points="1611.5001,-287.989 1615,-297.9891 1618.5001,-287.9891 1611.5001,-287.989"/>
</g>
<!-- ScrollToTopDirective  -->
<g id="node46" class="node">
<title>ScrollToTopDirective </title>
<polygon fill="#fb8072" stroke="#000000" points="1529.6271,-334 1386.3729,-334 1386.3729,-298 1529.6271,-298 1529.6271,-334"/>
<text text-anchor="middle" x="1458" y="-311.8" font-family="Times,serif" font-size="14.00" fill="#000000">ScrollToTopDirective </text>
</g>
<!-- SharedModule&#45;&gt;ScrollToTopDirective  -->
<g id="edge49" class="edge">
<title>SharedModule&#45;&gt;ScrollToTopDirective </title>
<path fill="none" stroke="#000000" stroke-dasharray="5,2" d="M4108.5398,-238C3741.6793,-238 1458,-238 1458,-238 1458,-238 1458,-287.9092 1458,-287.9092"/>
<polygon fill="#000000" stroke="#000000" points="1454.5001,-287.9091 1458,-297.9092 1461.5001,-287.9092 1454.5001,-287.9091"/>
</g>
<!-- CommonModule  -->
<g id="node47" class="node">
<title>CommonModule </title>
<polygon fill="#fb8072" stroke="#000000" points="1368.6677,-334 1253.3323,-334 1253.3323,-298 1368.6677,-298 1368.6677,-334"/>
<text text-anchor="middle" x="1311" y="-311.8" font-family="Times,serif" font-size="14.00" fill="#000000">CommonModule </text>
</g>
<!-- SharedModule&#45;&gt;CommonModule  -->
<g id="edge50" class="edge">
<title>SharedModule&#45;&gt;CommonModule </title>
<path fill="none" stroke="#000000" stroke-dasharray="5,2" d="M4108.585,-237C3730.533,-237 1311,-237 1311,-237 1311,-237 1311,-287.6772 1311,-287.6772"/>
<polygon fill="#000000" stroke="#000000" points="1307.5001,-287.6772 1311,-297.6772 1314.5001,-287.6773 1307.5001,-287.6772"/>
</g>
<!-- FormsModule  -->
<g id="node48" class="node">
<title>FormsModule </title>
<polygon fill="#fb8072" stroke="#000000" points="1235.3283,-334 1136.6717,-334 1136.6717,-298 1235.3283,-298 1235.3283,-334"/>
<text text-anchor="middle" x="1186" y="-311.8" font-family="Times,serif" font-size="14.00" fill="#000000">FormsModule </text>
</g>
<!-- SharedModule&#45;&gt;FormsModule  -->
<g id="edge51" class="edge">
<title>SharedModule&#45;&gt;FormsModule </title>
<path fill="none" stroke="#000000" stroke-dasharray="5,2" d="M4108.5882,-235C3721.1379,-235 1186,-235 1186,-235 1186,-235 1186,-287.6198 1186,-287.6198"/>
<polygon fill="#000000" stroke="#000000" points="1182.5001,-287.6198 1186,-297.6198 1189.5001,-287.6199 1182.5001,-287.6198"/>
</g>
<!-- ReactiveFormsModule  -->
<g id="node49" class="node">
<title>ReactiveFormsModule </title>
<polygon fill="#fb8072" stroke="#000000" points="1118.8045,-334 971.1955,-334 971.1955,-298 1118.8045,-298 1118.8045,-334"/>
<text text-anchor="middle" x="1045" y="-311.8" font-family="Times,serif" font-size="14.00" fill="#000000">ReactiveFormsModule </text>
</g>
<!-- SharedModule&#45;&gt;ReactiveFormsModule  -->
<g id="edge52" class="edge">
<title>SharedModule&#45;&gt;ReactiveFormsModule </title>
<path fill="none" stroke="#000000" stroke-dasharray="5,2" d="M4108.7884,-233C3711.6548,-233 1045,-233 1045,-233 1045,-233 1045,-287.9902 1045,-287.9902"/>
<polygon fill="#000000" stroke="#000000" points="1041.5001,-287.9902 1045,-297.9902 1048.5001,-287.9903 1041.5001,-287.9902"/>
</g>
<!-- NgbModule  -->
<g id="node50" class="node">
<title>NgbModule </title>
<polygon fill="#fb8072" stroke="#000000" points="953.6565,-334 866.3435,-334 866.3435,-298 953.6565,-298 953.6565,-334"/>
<text text-anchor="middle" x="910" y="-311.8" font-family="Times,serif" font-size="14.00" fill="#000000">NgbModule </text>
</g>
<!-- SharedModule&#45;&gt;NgbModule  -->
<g id="edge54" class="edge">
<title>SharedModule&#45;&gt;NgbModule </title>
<path fill="none" stroke="#000000" stroke-dasharray="5,2" d="M4108.6039,-232C3701.1124,-232 910,-232 910,-232 910,-232 910,-287.7733 910,-287.7733"/>
<polygon fill="#000000" stroke="#000000" points="906.5001,-287.7732 910,-297.7733 913.5001,-287.7733 906.5001,-287.7732"/>
</g>
<!-- TranslateModule  -->
<g id="node51" class="node">
<title>TranslateModule </title>
<polygon fill="#fb8072" stroke="#000000" points="848.6327,-334 733.3673,-334 733.3673,-298 848.6327,-298 848.6327,-334"/>
<text text-anchor="middle" x="791" y="-311.8" font-family="Times,serif" font-size="14.00" fill="#000000">TranslateModule </text>
</g>
<!-- SharedModule&#45;&gt;TranslateModule  -->
<g id="edge55" class="edge">
<title>SharedModule&#45;&gt;TranslateModule </title>
<path fill="none" stroke="#000000" stroke-dasharray="5,2" d="M4108.7781,-230C3693.5243,-230 791,-230 791,-230 791,-230 791,-287.7616 791,-287.7616"/>
<polygon fill="#000000" stroke="#000000" points="787.5001,-287.7616 791,-297.7616 794.5001,-287.7616 787.5001,-287.7616"/>
</g>
<!-- AngularFontAwesomeModule  -->
<g id="node52" class="node">
<title>AngularFontAwesomeModule </title>
<polygon fill="#fb8072" stroke="#000000" points="715.0735,-334 524.9265,-334 524.9265,-298 715.0735,-298 715.0735,-334"/>
<text text-anchor="middle" x="620" y="-311.8" font-family="Times,serif" font-size="14.00" fill="#000000">AngularFontAwesomeModule </text>
</g>
<!-- SharedModule&#45;&gt;AngularFontAwesomeModule  -->
<g id="edge56" class="edge">
<title>SharedModule&#45;&gt;AngularFontAwesomeModule </title>
<path fill="none" stroke="#000000" stroke-dasharray="5,2" d="M4108.6611,-229C3681.1731,-229 620,-229 620,-229 620,-229 620,-287.9735 620,-287.9735"/>
<polygon fill="#000000" stroke="#000000" points="616.5001,-287.9735 620,-297.9735 623.5001,-287.9736 616.5001,-287.9735"/>
</g>
<!-- { provide: APP_INITIALIZER, useFactory: setupTranslateService, deps: [TranslateService], multi: &#160;} -->
<g id="node16" class="node">
<title>{ provide: APP_INITIALIZER, useFactory: setupTranslateService, deps: [TranslateService], multi: &#160;}</title>
<ellipse fill="#fdb462" stroke="#000000" cx="3679" cy="-316" rx="405.8392" ry="18"/>
<text text-anchor="middle" x="3679" y="-311.8" font-family="Times,serif" font-size="14.00" fill="#000000">{ provide: APP_INITIALIZER, useFactory: setupTranslateService, deps: [TranslateService], multi: &#160;}</text>
</g>
<!-- { provide: APP_INITIALIZER, useFactory: setupTranslateService, deps: [TranslateService], multi: &#160;}&#45;&gt;AppModule -->
<g id="edge14" class="edge">
<title>{ provide: APP_INITIALIZER, useFactory: setupTranslateService, deps: [TranslateService], multi: &#160;}&#45;&gt;AppModule</title>
<path fill="none" stroke="#000000" d="M4085.1254,-316C4182.0724,-316 4258.0859,-316 4258.0859,-316 4258.0859,-316 4258.0859,-352.8939 4258.0859,-352.8939"/>
<polygon fill="#000000" stroke="#000000" points="4254.586,-352.8938 4258.0859,-362.8939 4261.586,-352.8939 4254.586,-352.8938"/>
</g>
<!-- NotFoundComponent -->
<g id="node17" class="node">
<title>NotFoundComponent</title>
<polygon fill="#ffffb3" stroke="#000000" points="6316.1122,-258 6177.8878,-258 6177.8878,-222 6316.1122,-222 6316.1122,-258"/>
<text text-anchor="middle" x="6247" y="-235.8" font-family="Times,serif" font-size="14.00" fill="#000000">NotFoundComponent</text>
</g>
<!-- NotFoundComponent&#45;&gt;ErrorModule -->
<g id="edge15" class="edge">
<title>NotFoundComponent&#45;&gt;ErrorModule</title>
<path fill="none" stroke="#000000" d="M6261.8474,-258.0109C6261.8474,-258.0109 6261.8474,-287.855 6261.8474,-287.855"/>
<polygon fill="#000000" stroke="#000000" points="6258.3475,-287.8549 6261.8474,-297.855 6265.3475,-287.855 6258.3475,-287.8549"/>
</g>
<!-- routing -->
<g id="node19" class="node">
<title>routing</title>
<polygon fill="#8dd3c7" stroke="#000000" points="6396.4435,-258 6393.4435,-262 6372.4435,-262 6369.4435,-258 6339.5565,-258 6339.5565,-222 6396.4435,-222 6396.4435,-258"/>
<text text-anchor="middle" x="6368" y="-235.8" font-family="Times,serif" font-size="14.00" fill="#000000">routing</text>
</g>
<!-- routing&#45;&gt;ErrorModule -->
<g id="edge17" class="edge">
<title>routing&#45;&gt;ErrorModule</title>
<path fill="none" stroke="#000000" d="M6368,-258.1985C6368,-282.3563 6368,-322 6368,-322 6368,-322 6301.7122,-322 6301.7122,-322"/>
<polygon fill="#000000" stroke="#000000" points="6301.7122,-318.5001 6291.7122,-322 6301.7121,-325.5001 6301.7122,-318.5001"/>
</g>
<!-- routing&#45;&gt;LegalAndFurtherModule -->
<g id="edge27" class="edge">
<title>routing&#45;&gt;LegalAndFurtherModule</title>
<path fill="none" stroke="#000000" d="M6382.1105,-258.0267C6382.1105,-278.7672 6382.1105,-310 6382.1105,-310 6382.1105,-310 6532.4478,-310 6532.4478,-310"/>
<polygon fill="#000000" stroke="#000000" points="6532.4478,-313.5001 6542.4478,-310 6532.4477,-306.5001 6532.4478,-313.5001"/>
</g>
<!-- routing&#45;&gt;PredictionResultModule -->
<g id="edge30" class="edge">
<title>routing&#45;&gt;PredictionResultModule</title>
<path fill="none" stroke="#000000" d="M6353.8896,-258.1025C6353.8896,-269.0859 6353.8896,-281 6353.8896,-281 6353.8896,-281 7089.1559,-281 7089.1559,-281 7089.1559,-281 7089.1559,-287.68 7089.1559,-287.68"/>
<polygon fill="#000000" stroke="#000000" points="7085.656,-287.6799 7089.1559,-297.68 7092.656,-287.68 7085.656,-287.6799"/>
</g>
<!-- LandingPageComponent -->
<g id="node20" class="node">
<title>LandingPageComponent</title>
<polygon fill="#ffffb3" stroke="#000000" points="5728.7021,-258 5573.2979,-258 5573.2979,-222 5728.7021,-222 5728.7021,-258"/>
<text text-anchor="middle" x="5651" y="-235.8" font-family="Times,serif" font-size="14.00" fill="#000000">LandingPageComponent</text>
</g>
<!-- LandingPageComponent&#45;&gt;LandingPageModule -->
<g id="edge18" class="edge">
<title>LandingPageComponent&#45;&gt;LandingPageModule</title>
<path fill="none" stroke="#000000" d="M5651,-258.1592C5651,-263.0433 5651,-267 5651,-267 5651,-267 4461.6386,-267 4461.6386,-267 4461.6386,-267 4461.6386,-287.7542 4461.6386,-287.7542"/>
<polygon fill="#000000" stroke="#000000" points="4458.1387,-287.7542 4461.6386,-297.7542 4465.1387,-287.7542 4458.1387,-287.7542"/>
</g>
<!-- GeneralInfoFormComponent -->
<g id="node21" class="node">
<title>GeneralInfoFormComponent</title>
<polygon fill="#ffffb3" stroke="#000000" points="5555.7892,-258 5376.2108,-258 5376.2108,-222 5555.7892,-222 5555.7892,-258"/>
<text text-anchor="middle" x="5466" y="-235.8" font-family="Times,serif" font-size="14.00" fill="#000000">GeneralInfoFormComponent</text>
</g>
<!-- GeneralInfoFormComponent&#45;&gt;LandingPageModule -->
<g id="edge19" class="edge">
<title>GeneralInfoFormComponent&#45;&gt;LandingPageModule</title>
<path fill="none" stroke="#000000" d="M5466,-258.1223C5466,-260.9729 5466,-263 5466,-263 5466,-263 4434.9644,-263 4434.9644,-263 4434.9644,-263 4434.9644,-287.7604 4434.9644,-287.7604"/>
<polygon fill="#000000" stroke="#000000" points="4431.4645,-287.7604 4434.9644,-297.7604 4438.4645,-287.7604 4431.4645,-287.7604"/>
</g>
<!-- QuestionnaireComponent -->
<g id="node22" class="node">
<title>QuestionnaireComponent</title>
<polygon fill="#ffffb3" stroke="#000000" points="6137.8599,-258 5978.1401,-258 5978.1401,-222 6137.8599,-222 6137.8599,-258"/>
<text text-anchor="middle" x="6058" y="-235.8" font-family="Times,serif" font-size="14.00" fill="#000000">QuestionnaireComponent</text>
</g>
<!-- QuestionnaireComponent&#45;&gt;LandingPageModule -->
<g id="edge20" class="edge">
<title>QuestionnaireComponent&#45;&gt;LandingPageModule</title>
<path fill="none" stroke="#000000" d="M6058,-258.4218C6058,-267.2791 6058,-276 6058,-276 6058,-276 4514.9869,-276 4514.9869,-276 4514.9869,-276 4514.9869,-287.8726 4514.9869,-287.8726"/>
<polygon fill="#000000" stroke="#000000" points="4511.487,-287.8725 4514.9869,-297.8726 4518.487,-287.8726 4511.487,-287.8725"/>
</g>
<!-- DynamicFormQuestionComponent -->
<g id="node23" class="node">
<title>DynamicFormQuestionComponent</title>
<polygon fill="#ffffb3" stroke="#000000" points="5959.5307,-258 5746.4693,-258 5746.4693,-222 5959.5307,-222 5959.5307,-258"/>
<text text-anchor="middle" x="5853" y="-235.8" font-family="Times,serif" font-size="14.00" fill="#000000">DynamicFormQuestionComponent</text>
</g>
<!-- DynamicFormQuestionComponent&#45;&gt;LandingPageModule -->
<g id="edge21" class="edge">
<title>DynamicFormQuestionComponent&#45;&gt;LandingPageModule</title>
<path fill="none" stroke="#000000" d="M5853,-258.2434C5853,-265.4297 5853,-272 5853,-272 5853,-272 4488.3127,-272 4488.3127,-272 4488.3127,-272 4488.3127,-287.8495 4488.3127,-287.8495"/>
<polygon fill="#000000" stroke="#000000" points="4484.8128,-287.8494 4488.3127,-297.8495 4491.8128,-287.8495 4484.8128,-287.8494"/>
</g>
<!-- CentralRenderComponent -->
<g id="node24" class="node">
<title>CentralRenderComponent</title>
<polygon fill="#ffffb3" stroke="#000000" points="6797.4664,-258 6634.5336,-258 6634.5336,-222 6797.4664,-222 6797.4664,-258"/>
<text text-anchor="middle" x="6716" y="-235.8" font-family="Times,serif" font-size="14.00" fill="#000000">CentralRenderComponent</text>
</g>
<!-- CentralRenderComponent&#45;&gt;LegalAndFurtherModule -->
<g id="edge23" class="edge">
<title>CentralRenderComponent&#45;&gt;LegalAndFurtherModule</title>
<path fill="none" stroke="#000000" d="M6666.9429,-258.0109C6666.9429,-258.0109 6666.9429,-287.855 6666.9429,-287.855"/>
<polygon fill="#000000" stroke="#000000" points="6663.4429,-287.8549 6666.9429,-297.855 6670.4429,-287.855 6663.4429,-287.8549"/>
</g>
<!-- LegalAndPrivacyComponent -->
<g id="node25" class="node">
<title>LegalAndPrivacyComponent</title>
<polygon fill="#ffffb3" stroke="#000000" points="6616.0744,-258 6435.9256,-258 6435.9256,-222 6616.0744,-222 6616.0744,-258"/>
<text text-anchor="middle" x="6526" y="-235.8" font-family="Times,serif" font-size="14.00" fill="#000000">LegalAndPrivacyComponent</text>
</g>
<!-- LegalAndPrivacyComponent&#45;&gt;LegalAndFurtherModule -->
<g id="edge24" class="edge">
<title>LegalAndPrivacyComponent&#45;&gt;LegalAndFurtherModule</title>
<path fill="none" stroke="#000000" d="M6591.5685,-258.0109C6591.5685,-258.0109 6591.5685,-287.855 6591.5685,-287.855"/>
<polygon fill="#000000" stroke="#000000" points="6588.0686,-287.8549 6591.5685,-297.855 6595.0686,-287.855 6588.0686,-287.8549"/>
</g>
<!-- AboutComponent -->
<g id="node26" class="node">
<title>AboutComponent</title>
<polygon fill="#ffffb3" stroke="#000000" points="7052.3301,-258 6935.6699,-258 6935.6699,-222 7052.3301,-222 7052.3301,-258"/>
<text text-anchor="middle" x="6994" y="-235.8" font-family="Times,serif" font-size="14.00" fill="#000000">AboutComponent</text>
</g>
<!-- AboutComponent&#45;&gt;LegalAndFurtherModule -->
<g id="edge25" class="edge">
<title>AboutComponent&#45;&gt;LegalAndFurtherModule</title>
<path fill="none" stroke="#000000" d="M6994,-258.1985C6994,-282.3563 6994,-322 6994,-322 6994,-322 6709.6479,-322 6709.6479,-322"/>
<polygon fill="#000000" stroke="#000000" points="6709.648,-318.5001 6699.6479,-322 6709.6479,-325.5001 6709.648,-318.5001"/>
</g>
<!-- FaqComponent -->
<g id="node27" class="node">
<title>FaqComponent</title>
<polygon fill="#ffffb3" stroke="#000000" points="6918.3301,-258 6815.6699,-258 6815.6699,-222 6918.3301,-222 6918.3301,-258"/>
<text text-anchor="middle" x="6867" y="-235.8" font-family="Times,serif" font-size="14.00" fill="#000000">FaqComponent</text>
</g>
<!-- FaqComponent&#45;&gt;LegalAndFurtherModule -->
<g id="edge26" class="edge">
<title>FaqComponent&#45;&gt;LegalAndFurtherModule</title>
<path fill="none" stroke="#000000" d="M6867,-258.0267C6867,-278.7672 6867,-310 6867,-310 6867,-310 6709.5123,-310 6709.5123,-310"/>
<polygon fill="#000000" stroke="#000000" points="6709.5123,-306.5001 6699.5123,-310 6709.5123,-313.5001 6709.5123,-306.5001"/>
</g>
<!-- ResultPageComponent -->
<g id="node29" class="node">
<title>ResultPageComponent</title>
<polygon fill="#ffffb3" stroke="#000000" points="7356.3216,-258 7211.6784,-258 7211.6784,-222 7356.3216,-222 7356.3216,-258"/>
<text text-anchor="middle" x="7284" y="-235.8" font-family="Times,serif" font-size="14.00" fill="#000000">ResultPageComponent</text>
</g>
<!-- ResultPageComponent&#45;&gt;PredictionResultModule -->
<g id="edge29" class="edge">
<title>ResultPageComponent&#45;&gt;PredictionResultModule</title>
<path fill="none" stroke="#000000" d="M7224.1375,-258.0109C7224.1375,-258.0109 7224.1375,-287.855 7224.1375,-287.855"/>
<polygon fill="#000000" stroke="#000000" points="7220.6375,-287.8549 7224.1375,-297.855 7227.6375,-287.855 7220.6375,-287.8549"/>
</g>
<!-- ChartsModule -->
<g id="node31" class="node">
<title>ChartsModule</title>
<polygon fill="#8dd3c7" stroke="#000000" points="7188.0968,-258 7185.0968,-262 7164.0968,-262 7161.0968,-258 7091.9032,-258 7091.9032,-222 7188.0968,-222 7188.0968,-258"/>
<text text-anchor="middle" x="7140" y="-235.8" font-family="Times,serif" font-size="14.00" fill="#000000">ChartsModule</text>
</g>
<!-- ChartsModule&#45;&gt;PredictionResultModule -->
<g id="edge32" class="edge">
<title>ChartsModule&#45;&gt;PredictionResultModule</title>
<path fill="none" stroke="#000000" d="M7140,-258.0109C7140,-258.0109 7140,-287.855 7140,-287.855"/>
<polygon fill="#000000" stroke="#000000" points="7136.5001,-287.8549 7140,-297.855 7143.5001,-287.855 7136.5001,-287.8549"/>
</g>
<!-- HeaderComponent -->
<g id="node32" class="node">
<title>HeaderComponent</title>
<polygon fill="#ffffb3" stroke="#000000" points="2655.7437,-334 2534.2563,-334 2534.2563,-298 2655.7437,-298 2655.7437,-334"/>
<text text-anchor="middle" x="2595" y="-311.8" font-family="Times,serif" font-size="14.00" fill="#000000">HeaderComponent</text>
</g>
<!-- HeaderComponent&#45;&gt;SharedModule -->
<g id="edge33" class="edge">
<title>HeaderComponent&#45;&gt;SharedModule</title>
<path fill="none" stroke="#000000" d="M2595,-297.8939C2595,-278.6609 2595,-251 2595,-251 2595,-251 4098.641,-251 4098.641,-251"/>
<polygon fill="#000000" stroke="#000000" points="4098.6411,-254.5001 4108.641,-251 4098.641,-247.5001 4098.6411,-254.5001"/>
</g>
<!-- FooterComponent -->
<g id="node33" class="node">
<title>FooterComponent</title>
<polygon fill="#ffffb3" stroke="#000000" points="3232.8809,-334 3115.1191,-334 3115.1191,-298 3232.8809,-298 3232.8809,-334"/>
<text text-anchor="middle" x="3174" y="-311.8" font-family="Times,serif" font-size="14.00" fill="#000000">FooterComponent</text>
</g>
<!-- FooterComponent&#45;&gt;SharedModule -->
<g id="edge34" class="edge">
<title>FooterComponent&#45;&gt;SharedModule</title>
<path fill="none" stroke="#000000" d="M3174,-297.9775C3174,-280.6266 3174,-257 3174,-257 3174,-257 4098.5289,-257 4098.5289,-257"/>
<polygon fill="#000000" stroke="#000000" points="4098.529,-260.5001 4108.5289,-257 4098.5289,-253.5001 4098.529,-260.5001"/>
</g>
<!-- ImageComponent -->
<g id="node34" class="node">
<title>ImageComponent</title>
<polygon fill="#ffffb3" stroke="#000000" points="3097.3132,-334 2980.6868,-334 2980.6868,-298 3097.3132,-298 3097.3132,-334"/>
<text text-anchor="middle" x="3039" y="-311.8" font-family="Times,serif" font-size="14.00" fill="#000000">ImageComponent</text>
</g>
<!-- ImageComponent&#45;&gt;SharedModule -->
<g id="edge35" class="edge">
<title>ImageComponent&#45;&gt;SharedModule</title>
<path fill="none" stroke="#000000" d="M3039,-297.698C3039,-279.7301 3039,-255 3039,-255 3039,-255 4098.4741,-255 4098.4741,-255"/>
<polygon fill="#000000" stroke="#000000" points="4098.4742,-258.5001 4108.4741,-255 4098.4741,-251.5001 4098.4742,-258.5001"/>
</g>
<!-- WebcamComponent -->
<g id="node35" class="node">
<title>WebcamComponent</title>
<polygon fill="#ffffb3" stroke="#000000" points="2962.5814,-334 2831.4186,-334 2831.4186,-298 2962.5814,-298 2962.5814,-334"/>
<text text-anchor="middle" x="2897" y="-311.8" font-family="Times,serif" font-size="14.00" fill="#000000">WebcamComponent</text>
</g>
<!-- WebcamComponent&#45;&gt;SharedModule -->
<g id="edge36" class="edge">
<title>WebcamComponent&#45;&gt;SharedModule</title>
<path fill="none" stroke="#000000" d="M2897,-297.7333C2897,-279.4448 2897,-254 2897,-254 2897,-254 4098.5673,-254 4098.5673,-254"/>
<polygon fill="#000000" stroke="#000000" points="4098.5673,-257.5001 4108.5673,-254 4098.5673,-250.5001 4098.5673,-257.5001"/>
</g>
<!-- ScrollToTopDirective -->
<g id="node36" class="node">
<title>ScrollToTopDirective</title>
<polygon fill="#ffffb3" stroke="#000000" points="2813.6275,-334 2674.3725,-334 2674.3725,-298 2813.6275,-298 2813.6275,-334"/>
<text text-anchor="middle" x="2744" y="-311.8" font-family="Times,serif" font-size="14.00" fill="#000000">ScrollToTopDirective</text>
</g>
<!-- ScrollToTopDirective&#45;&gt;SharedModule -->
<g id="edge37" class="edge">
<title>ScrollToTopDirective&#45;&gt;SharedModule</title>
<path fill="none" stroke="#000000" d="M2744,-297.8314C2744,-278.9102 2744,-252 2744,-252 2744,-252 4098.5041,-252 4098.5041,-252"/>
<polygon fill="#000000" stroke="#000000" points="4098.5041,-255.5001 4108.5041,-252 4098.5041,-248.5001 4098.5041,-255.5001"/>
</g>
<!-- FormsModule -->
<g id="node37" class="node">
<title>FormsModule</title>
<polygon fill="#8dd3c7" stroke="#000000" points="1939.8288,-334 1936.8288,-338 1915.8288,-338 1912.8288,-334 1844.1712,-334 1844.1712,-298 1939.8288,-298 1939.8288,-334"/>
<text text-anchor="middle" x="1892" y="-311.8" font-family="Times,serif" font-size="14.00" fill="#000000">FormsModule</text>
</g>
<!-- FormsModule&#45;&gt;SharedModule -->
<g id="edge39" class="edge">
<title>FormsModule&#45;&gt;SharedModule</title>
<path fill="none" stroke="#000000" d="M1892,-297.9551C1892,-276.3377 1892,-243 1892,-243 1892,-243 4098.564,-243 4098.564,-243"/>
<polygon fill="#000000" stroke="#000000" points="4098.564,-246.5001 4108.564,-243 4098.564,-239.5001 4098.564,-246.5001"/>
</g>
<!-- ReactiveFormsModule -->
<g id="node38" class="node">
<title>ReactiveFormsModule</title>
<polygon fill="#8dd3c7" stroke="#000000" points="2510.3047,-334 2507.3047,-338 2486.3047,-338 2483.3047,-334 2365.6953,-334 2365.6953,-298 2510.3047,-298 2510.3047,-334"/>
<text text-anchor="middle" x="2438" y="-311.8" font-family="Times,serif" font-size="14.00" fill="#000000">ReactiveFormsModule</text>
</g>
<!-- ReactiveFormsModule&#45;&gt;SharedModule -->
<g id="edge40" class="edge">
<title>ReactiveFormsModule&#45;&gt;SharedModule</title>
<path fill="none" stroke="#000000" d="M2438,-297.692C2438,-277.8545 2438,-249 2438,-249 2438,-249 4098.3787,-249 4098.3787,-249"/>
<polygon fill="#000000" stroke="#000000" points="4098.3787,-252.5001 4108.3787,-249 4098.3786,-245.5001 4098.3787,-252.5001"/>
</g>
<!-- RouterModule -->
<g id="node39" class="node">
<title>RouterModule</title>
<polygon fill="#8dd3c7" stroke="#000000" points="2347.6528,-334 2344.6528,-338 2323.6528,-338 2320.6528,-334 2250.3472,-334 2250.3472,-298 2347.6528,-298 2347.6528,-334"/>
<text text-anchor="middle" x="2299" y="-311.8" font-family="Times,serif" font-size="14.00" fill="#000000">RouterModule</text>
</g>
<!-- RouterModule&#45;&gt;SharedModule -->
<g id="edge41" class="edge">
<title>RouterModule&#45;&gt;SharedModule</title>
<path fill="none" stroke="#000000" d="M2299,-297.7772C2299,-277.6348 2299,-248 2299,-248 2299,-248 4098.7551,-248 4098.7551,-248"/>
<polygon fill="#000000" stroke="#000000" points="4098.7551,-251.5001 4108.7551,-248 4098.7551,-244.5001 4098.7551,-251.5001"/>
</g>
<!-- NgbModule -->
<g id="node40" class="node">
<title>NgbModule</title>
<polygon fill="#8dd3c7" stroke="#000000" points="2231.6571,-334 2228.6571,-338 2207.6571,-338 2204.6571,-334 2148.3429,-334 2148.3429,-298 2231.6571,-298 2231.6571,-334"/>
<text text-anchor="middle" x="2190" y="-311.8" font-family="Times,serif" font-size="14.00" fill="#000000">NgbModule</text>
</g>
<!-- NgbModule&#45;&gt;SharedModule -->
<g id="edge42" class="edge">
<title>NgbModule&#45;&gt;SharedModule</title>
<path fill="none" stroke="#000000" d="M2190,-297.9733C2190,-277.2328 2190,-246 2190,-246 2190,-246 4098.3683,-246 4098.3683,-246"/>
<polygon fill="#000000" stroke="#000000" points="4098.3683,-249.5001 4108.3683,-246 4098.3682,-242.5001 4098.3683,-249.5001"/>
</g>
<!-- TranslateModule.forChild() -->
<g id="node41" class="node">
<title>TranslateModule.forChild()</title>
<polygon fill="#8dd3c7" stroke="#000000" points="2129.8928,-334 2126.8928,-338 2105.8928,-338 2102.8928,-334 1958.1072,-334 1958.1072,-298 2129.8928,-298 2129.8928,-334"/>
<text text-anchor="middle" x="2044" y="-311.8" font-family="Times,serif" font-size="14.00" fill="#000000">TranslateModule.forChild()</text>
</g>
<!-- TranslateModule.forChild()&#45;&gt;SharedModule -->
<g id="edge43" class="edge">
<title>TranslateModule.forChild()&#45;&gt;SharedModule</title>
<path fill="none" stroke="#000000" d="M2044,-297.8314C2044,-276.502 2044,-244 2044,-244 2044,-244 4098.6003,-244 4098.6003,-244"/>
<polygon fill="#000000" stroke="#000000" points="4098.6004,-247.5001 4108.6003,-244 4098.6003,-240.5001 4098.6004,-247.5001"/>
</g>
</g>
</svg>
